<svg id="Layer_1" data-name="Layer 1" xmlns="http://www.w3.org/2000/svg" viewBox="0 0 100 100" width="135px" height="135px"><rect fill="#a8a0a0" width="100" height="100"/><rect fill="#fff" x="8.75" y="8.75" width="82.5" height="82.5"/><path fill="#fff" d="M95.93,95.93H4.07V4.07H95.93Zm-91.16-.7H95.23V4.77H4.77Z"/><path d="M16,50.18c2.74-1.92,3.58-2.76,3.58-4.42,0-.88-.23-1.3-.91-1.3s-.94.53-.94,1.28v.75H16.13v-.34c0-1.17.54-2.33,2.69-2.33,1.83,0,2.62.78,2.62,2.11,0,1.56-.86,2.41-4,4.3v.07h2.64c.37,0,.48-.08.48-.49v-.38h.95v2.12H16Z"/><path d="M29.43,47.63v.27c0,2-.43,3.8-3.19,3.8s-3.19-1.83-3.19-3.8v-.27c0-2,.43-3.8,3.18-3.8S29.43,45.66,29.43,47.63ZM25,46.74v2c0,1.46.16,2.28,1.23,2.28s1.23-.83,1.23-2.28v-2c0-1.46-.16-2.28-1.23-2.28S25,45.3,25,46.74Z"/><path d="M30.8,50.18c2.75-1.92,3.58-2.76,3.58-4.42,0-.88-.23-1.3-.91-1.3s-.94.53-.94,1.28v.75H30.89v-.34c0-1.17.54-2.33,2.69-2.33,1.83,0,2.62.78,2.62,2.11,0,1.56-.85,2.41-4,4.3v.07h2.65c.37,0,.47-.08.47-.49v-.38h1v2.12H30.8Z"/><path d="M37.87,50.18c2.74-1.92,3.58-2.76,3.58-4.42,0-.88-.24-1.3-.91-1.3s-.95.53-.95,1.28v.75H38v-.34c0-1.17.54-2.33,2.69-2.33,1.83,0,2.63.78,2.63,2.11,0,1.56-.86,2.41-4,4.3v.07h2.65c.37,0,.48-.08.48-.49v-.38h1v2.12H37.87Z"/><path d="M21.76,23.27a1.9,1.9,0,0,1-.19.88,2.63,2.63,0,0,1-.49.66,2.75,2.75,0,0,1-1,.61,4,4,0,0,1-1.24.19,3.27,3.27,0,0,1-2.3-.76A3,3,0,0,1,15.9,24a2.49,2.49,0,0,1-.23-1.06h1a1.65,1.65,0,0,0,.15.69,2,2,0,0,0,.41.57,1.65,1.65,0,0,0,.69.38,3.06,3.06,0,0,0,.85.12,3.72,3.72,0,0,0,.84-.1,1.6,1.6,0,0,0,.65-.36,1.52,1.52,0,0,0,.29-.39,1.15,1.15,0,0,0,.11-.55,1.21,1.21,0,0,0-.31-.83,1.8,1.8,0,0,0-1-.46l-.63-.09-.64-.1a3.71,3.71,0,0,1-.84-.23,2,2,0,0,1-.67-.42,1.9,1.9,0,0,1-.46-.63,2.21,2.21,0,0,1-.16-.84,2,2,0,0,1,.19-.86,2.05,2.05,0,0,1,.51-.72,3,3,0,0,1,2.1-.79,3.31,3.31,0,0,1,1.13.19,2.56,2.56,0,0,1,1,.58,2.35,2.35,0,0,1,.76,1.71H20.56a1.68,1.68,0,0,0-.39-1,1.45,1.45,0,0,0-.58-.41,2.16,2.16,0,0,0-.83-.15,2.58,2.58,0,0,0-.8.13,1.48,1.48,0,0,0-.62.43,1.36,1.36,0,0,0-.25.39,1.42,1.42,0,0,0-.08.48,1,1,0,0,0,.1.46,1,1,0,0,0,.27.34,1.22,1.22,0,0,0,.39.21,2.18,2.18,0,0,0,.44.11l.67.1.66.11a2.84,2.84,0,0,1,1.61.73A2,2,0,0,1,21.76,23.27Z"/><path d="M23.31,18.45V17.32h1.11v1.13Zm.06,7V19.76h1v5.71Z"/><path d="M28.29,25.47l-.17,0a3.07,3.07,0,0,1-.5,0,1.11,1.11,0,0,1-.92-.36,1.7,1.7,0,0,1-.28-1V17.32h1v6.76a.77.77,0,0,0,.11.44.49.49,0,0,0,.41.15h.32l.07,0Z"/><path d="M32,25.47h-1l-2.11-5.71h1l1.65,4.58,1.59-4.58h1Z"/><path d="M39.77,22.31v.31c0,.1,0,.2,0,.31h-4a2.16,2.16,0,0,0,.15.78,1.7,1.7,0,0,0,.4.65,1.42,1.42,0,0,0,1,.41,1.4,1.4,0,0,0,1.06-.38,1,1,0,0,0,.21-.26,1.63,1.63,0,0,0,.13-.36h.94a2.13,2.13,0,0,1-.88,1.41,2.65,2.65,0,0,1-.68.32,2.54,2.54,0,0,1-.78.11,2.42,2.42,0,0,1-1.09-.23,2.24,2.24,0,0,1-.8-.62,2.79,2.79,0,0,1-.54-1,3.66,3.66,0,0,1-.17-1.16,4.31,4.31,0,0,1,.1-1,2.53,2.53,0,0,1,.34-.85A2.33,2.33,0,0,1,36,20a2.61,2.61,0,0,1,2.29-.14,2.37,2.37,0,0,1,.75.53,2.87,2.87,0,0,1,.53.88A3,3,0,0,1,39.77,22.31Zm-1-.21a2.23,2.23,0,0,0-.09-.63,1.75,1.75,0,0,0-.26-.53,1.42,1.42,0,0,0-.46-.38,1.54,1.54,0,0,0-.67-.14,1.45,1.45,0,0,0-.68.15,1.54,1.54,0,0,0-.49.38,1.57,1.57,0,0,0-.29.54,2.52,2.52,0,0,0-.11.61Z"/><path d="M44.46,20.69l-.26,0h-.27a1.36,1.36,0,0,0-.61.13,1.45,1.45,0,0,0-.47.32,1.62,1.62,0,0,0-.28.39,1.84,1.84,0,0,0-.15.47,2.76,2.76,0,0,0-.07.49c0,.17,0,.33,0,.48v2.54h-.95V19.76h.85l.08,1A1.56,1.56,0,0,1,43,20a2.11,2.11,0,0,1,1-.26,2.28,2.28,0,0,1,.45,0Z"/><path d="M18.7,31.19v7.06h-1V31.19H15.31v-.94h5.77v.94Z"/><path d="M24.46,33.48l-.27,0h-.26a1.56,1.56,0,0,0-.62.13,2,2,0,0,0-.47.32,1.7,1.7,0,0,0-.27.39,2,2,0,0,0-.16.47,4.29,4.29,0,0,0-.07.5c0,.16,0,.32,0,.47v2.54h-.94V32.54h.84l.08,1a1.53,1.53,0,0,1,.7-.78,2.07,2.07,0,0,1,1-.25l.45,0Z"/><path d="M30.38,38.19a.91.91,0,0,1-.3.11,1.69,1.69,0,0,1-.33,0,.73.73,0,0,1-.6-.25.91.91,0,0,1-.22-.62h0a1.69,1.69,0,0,1-.74.68,2.32,2.32,0,0,1-1.1.26,2.28,2.28,0,0,1-.86-.15,1.92,1.92,0,0,1-.61-.41,1.76,1.76,0,0,1-.37-.56,1.81,1.81,0,0,1-.12-.64,1.77,1.77,0,0,1,.1-.58,1.41,1.41,0,0,1,.33-.56,2,2,0,0,1,.63-.43,2.83,2.83,0,0,1,1-.22l1.74-.1v-.42a2.48,2.48,0,0,0-.05-.45.91.91,0,0,0-.24-.41,1,1,0,0,0-.37-.22,1.82,1.82,0,0,0-.57-.08,1.65,1.65,0,0,0-.64.1,1,1,0,0,0-.4.24.94.94,0,0,0-.28.69h-.94a2,2,0,0,1,.14-.68,1.73,1.73,0,0,1,.36-.52,1.79,1.79,0,0,1,.76-.45,3,3,0,0,1,1-.16A2.48,2.48,0,0,1,29,32.7a1.8,1.8,0,0,1,.69.79,2.26,2.26,0,0,1,.17.88v2.76a.46.46,0,0,0,.08.31.36.36,0,0,0,.23.08h.16l.09,0ZM28.87,35.5l-1.54.09a1.82,1.82,0,0,0-.44.07,1.32,1.32,0,0,0-.4.18,1,1,0,0,0-.3.31,1,1,0,0,0-.11.46,1,1,0,0,0,.26.69,1.1,1.1,0,0,0,.87.3,1.77,1.77,0,0,0,.64-.12,1.26,1.26,0,0,0,.53-.35,1.5,1.5,0,0,0,.38-.59,2.38,2.38,0,0,0,.11-.7Z"/><path d="M35.56,38.25V34.63a1.54,1.54,0,0,0-.29-1,1.15,1.15,0,0,0-1-.36,1.12,1.12,0,0,0-.73.25,1.77,1.77,0,0,0-.51.63,2,2,0,0,0-.18.73c0,.27,0,.51,0,.73v2.65h-.95V32.54h.83l.08.86a1.49,1.49,0,0,1,.3-.44,2.61,2.61,0,0,1,.43-.31,3,3,0,0,1,.5-.19,2.23,2.23,0,0,1,.5-.07A1.87,1.87,0,0,1,36,33a2.18,2.18,0,0,1,.5,1.54v3.76Z"/><path d="M42.74,36.59a1.53,1.53,0,0,1-.13.66,1.71,1.71,0,0,1-.32.5,2,2,0,0,1-.82.5,3.51,3.51,0,0,1-1,.15,3.68,3.68,0,0,1-1-.14,2,2,0,0,1-.84-.51,1.91,1.91,0,0,1-.4-.6,1.73,1.73,0,0,1-.15-.7h1a1.08,1.08,0,0,0,.14.51,1.3,1.3,0,0,0,.32.38,1.31,1.31,0,0,0,.48.2,2.64,2.64,0,0,0,.55.06,2,2,0,0,0,.56-.07,1.09,1.09,0,0,0,.49-.25.67.67,0,0,0,.2-.26.73.73,0,0,0,.08-.36.7.7,0,0,0-.22-.54,1.09,1.09,0,0,0-.67-.27l-.25,0-.34,0L40,35.72l-.34,0a1.79,1.79,0,0,1-1-.49,1.45,1.45,0,0,1-.38-1,1.35,1.35,0,0,1,.15-.62A1.5,1.5,0,0,1,38.7,33a2,2,0,0,1,.71-.47,2.7,2.7,0,0,1,1-.17,3,3,0,0,1,1,.18,1.81,1.81,0,0,1,.77.55,2.41,2.41,0,0,1,.3.48,1.63,1.63,0,0,1,.1.61h-1a.92.92,0,0,0-.1-.41,1.23,1.23,0,0,0-.22-.3,1.38,1.38,0,0,0-.94-.31l-.32,0a1,1,0,0,0-.35.1.91.91,0,0,0-.42.32.75.75,0,0,0-.15.44.65.65,0,0,0,.2.53,1.24,1.24,0,0,0,.57.22l.57.07.8.12a1.91,1.91,0,0,1,1,.52A1.43,1.43,0,0,1,42.74,36.59Z"/><path d="M49.44,35.4a4.16,4.16,0,0,1-.22,1.38,2.67,2.67,0,0,1-.65,1,1.91,1.91,0,0,1-.67.42,2.29,2.29,0,0,1-.9.16,2,2,0,0,1-.47-.06,2.36,2.36,0,0,1-.47-.16,1.79,1.79,0,0,1-.42-.25,1.31,1.31,0,0,1-.29-.34v3.1h-1V32.55h.84l.07.75a1.62,1.62,0,0,1,.73-.66,2.2,2.2,0,0,1,1-.24,2.46,2.46,0,0,1,.94.17,2,2,0,0,1,.68.46,2.64,2.64,0,0,1,.61,1A4.18,4.18,0,0,1,49.44,35.4Zm-1,0a4.15,4.15,0,0,0-.07-.79,2.25,2.25,0,0,0-.26-.7,1.41,1.41,0,0,0-.49-.51,1.49,1.49,0,0,0-.79-.19,1.27,1.27,0,0,0-.54.1,1.59,1.59,0,0,0-.39.27,1.71,1.71,0,0,0-.5.8,4.07,4.07,0,0,0,0,2,1.68,1.68,0,0,0,.5.79,1.36,1.36,0,0,0,.39.27,1.27,1.27,0,0,0,.54.11,1.49,1.49,0,0,0,.79-.2,1.31,1.31,0,0,0,.49-.5,2.31,2.31,0,0,0,.26-.71A4.11,4.11,0,0,0,48.46,35.41Z"/><path d="M55.89,38.19a1.05,1.05,0,0,1-.31.11,1.69,1.69,0,0,1-.33,0,.76.76,0,0,1-.6-.25.91.91,0,0,1-.22-.62h0a1.75,1.75,0,0,1-.74.68,2.38,2.38,0,0,1-1.1.26,2.33,2.33,0,0,1-.87-.15,2,2,0,0,1-.61-.41,1.58,1.58,0,0,1-.36-.56,1.63,1.63,0,0,1-.13-.64,2.08,2.08,0,0,1,.1-.58A1.41,1.41,0,0,1,51,35.5a2,2,0,0,1,.63-.43,2.84,2.84,0,0,1,1-.22l1.73-.1v-.42a1.82,1.82,0,0,0,0-.45.76.76,0,0,0-.24-.41,1,1,0,0,0-.37-.22,1.73,1.73,0,0,0-.57-.08,1.69,1.69,0,0,0-.64.1,1,1,0,0,0-.4.24,1,1,0,0,0-.28.69h-.93a1.59,1.59,0,0,1,.14-.68,1.54,1.54,0,0,1,.35-.52,1.85,1.85,0,0,1,.76-.45,3,3,0,0,1,1-.16,2.48,2.48,0,0,1,1.32.31,1.68,1.68,0,0,1,.69.79,2.26,2.26,0,0,1,.17.88v2.76a.41.41,0,0,0,.09.31.32.32,0,0,0,.23.08h.15l.1,0ZM54.37,35.5l-1.53.09a1.75,1.75,0,0,0-.44.07,1.38,1.38,0,0,0-.41.18.86.86,0,0,0-.29.31.85.85,0,0,0-.11.46,1,1,0,0,0,.26.69,1.08,1.08,0,0,0,.86.3,1.77,1.77,0,0,0,.64-.12,1.3,1.3,0,0,0,.54-.35,1.59,1.59,0,0,0,.37-.59,2.38,2.38,0,0,0,.11-.7Z"/><path d="M60.49,33.48l-.27,0H60a1.56,1.56,0,0,0-.62.13,1.79,1.79,0,0,0-.46.32,1.48,1.48,0,0,0-.28.39,2.6,2.6,0,0,0-.16.47,4.29,4.29,0,0,0-.07.5c0,.16,0,.32,0,.47v2.54h-1V32.54h.85l.07,1a1.57,1.57,0,0,1,.7-.78,2.07,2.07,0,0,1,1-.25l.45,0Z"/><path d="M66.23,35.09v.31c0,.1,0,.21,0,.31h-4a2.21,2.21,0,0,0,.15.79,1.79,1.79,0,0,0,.4.64,1.42,1.42,0,0,0,1.05.41,1.44,1.44,0,0,0,1.07-.37,1.21,1.21,0,0,0,.2-.26,1.24,1.24,0,0,0,.13-.36h.94a2,2,0,0,1-.29.8,2.15,2.15,0,0,1-.59.61,2.68,2.68,0,0,1-2.54.2,2.53,2.53,0,0,1-.81-.63,2.79,2.79,0,0,1-.54-1,4,4,0,0,1-.17-1.15,4.4,4.4,0,0,1,.1-1,2.86,2.86,0,0,1,.34-.85,2.44,2.44,0,0,1,2.15-1.2,2.4,2.4,0,0,1,1,.2,2.25,2.25,0,0,1,.75.54A2.69,2.69,0,0,1,66,34,3,3,0,0,1,66.23,35.09Zm-1-.2a2.18,2.18,0,0,0-.09-.63,1.64,1.64,0,0,0-.26-.53,1.22,1.22,0,0,0-.46-.38,1.41,1.41,0,0,0-.67-.14,1.59,1.59,0,0,0-.68.14,1.53,1.53,0,0,0-.48.39,1.46,1.46,0,0,0-.3.53,2.6,2.6,0,0,0-.11.62Z"/><path d="M71.5,38.25V34.63a1.6,1.6,0,0,0-.28-1,1.19,1.19,0,0,0-1-.36,1.12,1.12,0,0,0-.73.25,1.77,1.77,0,0,0-.51.63,2,2,0,0,0-.18.73c0,.27,0,.51,0,.73v2.65h-1V32.54h.83l.08.86a1.52,1.52,0,0,1,.31-.44,2.17,2.17,0,0,1,.42-.31,3,3,0,0,1,.5-.19,2.23,2.23,0,0,1,.5-.07A1.91,1.91,0,0,1,72,33a2.23,2.23,0,0,1,.49,1.54v3.76Z"/><path d="M78.88,36.33a2.19,2.19,0,0,1-.2.81,2.22,2.22,0,0,1-.46.64,2.38,2.38,0,0,1-.71.45,2.5,2.5,0,0,1-.94.17,2.45,2.45,0,0,1-1.28-.31,2.69,2.69,0,0,1-.81-.76,2.94,2.94,0,0,1-.35-.82,5.24,5.24,0,0,1,0-2.23,2.75,2.75,0,0,1,.35-.81,2.6,2.6,0,0,1,.81-.77,2.44,2.44,0,0,1,1.27-.31,2.69,2.69,0,0,1,.92.16,2.11,2.11,0,0,1,.7.45,2.08,2.08,0,0,1,.47.64,2.11,2.11,0,0,1,.21.83h-1a1.46,1.46,0,0,0-.14-.51,1.19,1.19,0,0,0-.27-.38,1.26,1.26,0,0,0-.4-.26,1.46,1.46,0,0,0-.52-.09,1.26,1.26,0,0,0-.57.11,2,2,0,0,0-.42.26,1.47,1.47,0,0,0-.46.78,4.35,4.35,0,0,0,0,2,1.47,1.47,0,0,0,.46.78,2,2,0,0,0,.42.26,1.26,1.26,0,0,0,.57.11,1.45,1.45,0,0,0,.55-.1,1.15,1.15,0,0,0,.42-.28,1.45,1.45,0,0,0,.25-.36,1.41,1.41,0,0,0,.13-.49Z"/><path d="M82.17,39.42a2.27,2.27,0,0,1-.56.89,1.38,1.38,0,0,1-1,.33,3.2,3.2,0,0,1-.59,0l-.28-.07v-.84l.21.05a.6.6,0,0,0,.2,0l.27,0a1.05,1.05,0,0,0,.52-.13.87.87,0,0,0,.34-.45l.36-1-2.28-5.71h1.08L82.13,37l1.61-4.5h1Z"/><path d="M15.81,78c0-2.61,1.13-4.55,3.92-4.55,2.52,0,3.61,1.38,3.61,3.36V77H21.29v-.28c0-1.1-.44-1.68-1.54-1.68s-1.8.75-1.8,2.75v.56c0,2.12.54,2.8,1.81,2.8,1,0,1.61-.45,1.61-1.65v-.37h2v.28c0,2-1,3.31-3.55,3.31-3.05,0-4-2-4-4.5Zm12-2.28c2.11,0,2.82,1.15,2.82,2.29v4.54H28.88v-.93h-.05A2,2,0,0,1,27,82.69a2,2,0,0,1-2.22-2c0-1.23.66-2.21,2.74-2.21h1.34v-.41c0-.64-.17-1.08-1-1.08s-1.08.31-1.08.87v0H25v-.18C25,76.81,25.74,75.72,27.83,75.72Zm1,4.13v-.12H27.64c-.75,0-1,.36-1,.83v.09c0,.54.3.79.83.79C28.28,81.44,28.83,80.88,28.83,79.85Zm3.49-4h1.82v1.27h0a2.06,2.06,0,0,1,2.13-1.39c1.56,0,2.17.8,2.17,2.21v4.62H36.67V78.37c0-.82-.27-1.17-1.11-1.17a1.31,1.31,0,0,0-1.42,1.34v4H32.32Zm12.06,5.75a2,2,0,0,1-1.85,1.09c-2.09,0-2.74-1.81-2.74-3.37v-.13c0-2.05,1-3.47,2.74-3.47a2.09,2.09,0,0,1,1.85.82V73.38H46.2v9.17H44.38Zm0-1.43v-2a1.25,1.25,0,0,0-1.32-1c-1.1,0-1.47.68-1.47,2v.17c0,1.28.28,2,1.38,2A1.29,1.29,0,0,0,44.39,80.16Zm3.47-6a1,1,0,1,1,1,1A1,1,0,0,1,47.86,74.11Zm.07,1.73h1.82v6.71H47.93Zm7.8,5.75a2,2,0,0,1-1.86,1.09c-2.08,0-2.74-1.81-2.74-3.37v-.13c0-2.05,1-3.47,2.74-3.47a2.11,2.11,0,0,1,1.86.82V73.38h1.82v9.17H55.73Zm0-1.43v-2a1.26,1.26,0,0,0-1.33-1c-1.09,0-1.47.68-1.47,2v.17c0,1.28.28,2,1.39,2A1.31,1.31,0,0,0,55.74,80.16Zm3.14,1.46a1,1,0,0,1,1-1,1,1,0,1,1,0,2.06A1,1,0,0,1,58.88,81.62Z"/></svg>